<svg width="25" height="25" viewBox="0 0 25 25" fill="none" xmlns="http://www.w3.org/2000/svg">
<g clip-path="url(#clip0)">
<path d="M24.9989 24.2778C24.999 24.2726 25.0037 9.3668 24.9932 9.28365C24.967 9.0756 24.853 8.89602 24.6975 8.78319C21.8492 6.71306 20.4693 5.71327 19.4821 4.99085V0.733597C19.4821 0.32913 19.1542 0.0012207 18.7497 0.0012207H6.25049C5.84603 0.0012207 5.51812 0.32913 5.51812 0.733597V4.99129C4.22225 5.93918 0.450413 8.67299 0.296712 8.78802C0.140325 8.90418 0.0287109 9.0839 0.00556778 9.29649C-0.00370899 9.38193 0.000978219 24.2953 0.0028824 24.3209C0.0302733 24.6984 0.345976 24.9996 0.733208 24.9996C25.2759 24.9996 24.2792 25.0025 24.3476 24.9949C24.7143 24.9543 24.9938 24.6468 24.9989 24.2778ZM1.46558 10.8168L9.66366 16.7997L1.46558 22.8207V10.8168ZM12.5001 16.5339C12.9394 16.8566 21.6014 23.2183 22.0325 23.5349H2.96764C3.39847 23.2185 12.0607 16.8566 12.5001 16.5339ZM23.5345 10.8168V22.8206L15.3365 16.7997L23.5345 10.8168ZM23.0228 9.3769L19.482 11.9609V6.80407C20.2195 7.3409 21.4122 8.20666 23.0228 9.3769ZM18.0173 1.46597V13.0299L14.0981 15.8902L12.9336 15.0349C12.6756 14.8455 12.3245 14.8455 12.0665 15.0349L10.9021 15.8902L6.98282 13.0299V1.46597H18.0173ZM5.51807 6.80421V11.9609L1.97722 9.37681C3.38959 8.3505 4.88593 7.26424 5.51807 6.80421Z" fill="url(#paint0_linear)"/>
</g>
<defs>
<linearGradient id="paint0_linear" x1="12.5" y1="0.0012207" x2="12.5" y2="25.0001" gradientUnits="userSpaceOnUse">
<stop stop-color="#FAA001"/>
<stop offset="1" stop-color="#EBA54D"/>
</linearGradient>
<clipPath id="clip0">
<rect width="25" height="25" fill="white"/>
</clipPath>
</defs>
</svg>
