<svg width="25" height="25" viewBox="0 0 25 25" fill="none" xmlns="http://www.w3.org/2000/svg">
<path d="M8.07744 18.6232L8.07743 18.6232C6.64653 16.5661 5.57799 14.7378 4.86868 13.1473C4.15721 11.552 3.82031 10.225 3.82031 9.16233C3.82031 4.38629 7.7066 0.5 12.4826 0.5C17.2587 0.5 21.1452 4.3863 21.1452 9.16233C21.1452 10.225 20.8082 11.552 20.0967 13.1473C19.3874 14.7378 18.3189 16.5661 16.888 18.6232C14.7958 21.6309 12.737 23.9597 12.6552 24.052L12.4827 24.2465L12.3101 24.0518L12.3099 24.0516C12.2284 23.9598 10.1695 21.631 8.07744 18.6232ZM12.1004 23.0989L12.4827 23.5523L12.8649 23.0989C13.6291 22.1923 15.0801 20.415 16.5171 18.3476C17.8615 16.414 18.8977 14.6591 19.5997 13.1267C20.2977 11.6029 20.6834 10.2602 20.6834 9.16233C20.6834 4.64006 17.0051 0.961601 12.4826 0.961601C7.96036 0.961601 4.28191 4.64005 4.28191 9.16233C4.28191 10.2614 4.66833 11.6056 5.36773 13.1314C6.07109 14.6659 7.10942 16.4231 8.45641 18.3595C9.8925 20.4242 11.338 22.1948 12.1004 23.0989Z" stroke="url(#paint0_linear)"/>
<path d="M7.57513 8.79375C7.57513 6.08814 9.77704 3.88623 12.4827 3.88623C15.1885 3.88623 17.3904 6.08815 17.3904 8.79375C17.3904 11.4994 15.1885 13.7015 12.4827 13.7015C9.77707 13.7015 7.57513 11.4994 7.57513 8.79375ZM8.03674 8.79375C8.03674 11.2458 10.0308 13.2399 12.4827 13.2399C14.9347 13.2399 16.9288 11.2458 16.9288 8.79375C16.9288 6.34188 14.9347 4.34783 12.4827 4.34783C10.0308 4.34783 8.03674 6.3419 8.03674 8.79375Z" stroke="url(#paint1_linear)"/>
<defs>
<linearGradient id="paint0_linear" x1="12.4827" y1="0" x2="12.4827" y2="25" gradientUnits="userSpaceOnUse">
<stop stop-color="#E07A01"/>
<stop offset="1" stop-color="#FCA401"/>
</linearGradient>
<linearGradient id="paint1_linear" x1="12.4828" y1="3.38623" x2="12.4828" y2="14.2015" gradientUnits="userSpaceOnUse">
<stop stop-color="#E07A01"/>
<stop offset="1" stop-color="#FCA401"/>
</linearGradient>
</defs>
</svg>
