<svg width="24" height="24" viewBox="0 0 24 24" fill="none" xmlns="http://www.w3.org/2000/svg">
<g clip-path="url(#clip0)">
<path d="M17.2492 24C16.4744 24 15.7063 23.863 14.9551 23.5901C11.646 22.388 8.5744 20.4301 6.07231 17.9281C3.57022 15.4261 1.61233 12.3544 0.410273 9.04529C0.0239916 7.98183 -0.0900038 6.88406 0.0715678 5.78236C0.222921 4.7504 0.622655 3.74858 1.2276 2.88518C1.83522 2.01798 2.64528 1.2967 3.57018 0.799327C4.55648 0.268958 5.63301 0 6.76997 0C7.12358 0 7.42919 0.247068 7.5033 0.592804L8.68047 6.08628C8.73376 6.33504 8.65731 6.59387 8.47746 6.77377L6.466 8.78519C8.36351 12.5578 11.4425 15.6368 15.2151 17.5343L17.2266 15.5229C17.4064 15.343 17.6653 15.2667 17.914 15.3199L23.4075 16.497C23.7533 16.5711 24.0003 16.8767 24.0003 17.2304C24.0003 18.3673 23.7314 19.4439 23.201 20.4302C22.7036 21.3551 21.9823 22.1652 21.1151 22.7728C20.2518 23.3777 19.2499 23.7774 18.2179 23.9288C17.8945 23.9763 17.5712 24 17.2492 24ZM6.17074 1.53275C4.67104 1.69831 3.33994 2.48437 2.456 3.74596C1.46201 5.16457 1.23022 6.90942 1.82007 8.5332C4.13111 14.8951 9.10533 19.8693 15.4672 22.1803C17.091 22.7702 18.8359 22.5385 20.2545 21.5444C21.5161 20.6605 22.3021 19.3294 22.4677 17.8297L17.9987 16.8721L15.8981 18.9727C15.6745 19.1963 15.3349 19.2556 15.0489 19.1212C10.587 17.0251 6.97537 13.4134 4.8792 8.95154C4.74482 8.66547 4.80416 8.32583 5.0277 8.10234L7.12836 6.00168L6.17074 1.53275Z" fill="url(#paint0_linear)"/>
<path d="M23.25 12.7495C22.8358 12.7495 22.5 12.4137 22.5 11.9995C22.5 6.21003 17.7899 1.49994 12.0004 1.49994C11.5863 1.49994 11.2505 1.16414 11.2505 0.749969C11.2505 0.335799 11.5863 0 12.0004 0C15.2057 0 18.219 1.24814 20.4854 3.51454C22.7518 5.78095 24 8.79428 24 11.9995C24 12.4137 23.6642 12.7495 23.25 12.7495Z" fill="url(#paint1_linear)"/>
<path d="M20.2501 12.7496C19.8359 12.7496 19.5001 12.4138 19.5001 11.9996C19.5001 7.8643 16.1358 4.49994 12.0004 4.49994C11.5863 4.49994 11.2505 4.16414 11.2505 3.74997C11.2505 3.3358 11.5863 3 12.0004 3C16.9628 3 21.0001 7.03723 21.0001 11.9996C21.0001 12.4138 20.6643 12.7496 20.2501 12.7496Z" fill="url(#paint2_linear)"/>
<path d="M17.2502 12.7495C16.8361 12.7495 16.5003 12.4137 16.5003 11.9995C16.5003 9.51829 14.4817 7.4997 12.0004 7.4997C11.5863 7.4997 11.2505 7.1639 11.2505 6.74973C11.2505 6.33555 11.5863 5.99976 12.0004 5.99976C15.3087 5.99976 18.0002 8.69121 18.0002 11.9995C18.0002 12.4137 17.6644 12.7495 17.2502 12.7495Z" fill="url(#paint3_linear)"/>
</g>
<defs>
<linearGradient id="paint0_linear" x1="12.0004" y1="0" x2="12.0004" y2="24" gradientUnits="userSpaceOnUse">
<stop stop-color="#FAA001"/>
<stop offset="1" stop-color="#EBA54D"/>
</linearGradient>
<linearGradient id="paint1_linear" x1="17.6252" y1="0" x2="17.6252" y2="12.7495" gradientUnits="userSpaceOnUse">
<stop stop-color="#FAA001"/>
<stop offset="1" stop-color="#EBA54D"/>
</linearGradient>
<linearGradient id="paint2_linear" x1="16.1253" y1="3" x2="16.1253" y2="12.7496" gradientUnits="userSpaceOnUse">
<stop stop-color="#FAA001"/>
<stop offset="1" stop-color="#EBA54D"/>
</linearGradient>
<linearGradient id="paint3_linear" x1="14.6253" y1="5.99976" x2="14.6253" y2="12.7495" gradientUnits="userSpaceOnUse">
<stop stop-color="#FAA001"/>
<stop offset="1" stop-color="#EBA54D"/>
</linearGradient>
<clipPath id="clip0">
<rect width="24" height="24" fill="white"/>
</clipPath>
</defs>
</svg>
