<svg width="32" height="34" viewBox="0 0 32 34" fill="none" xmlns="http://www.w3.org/2000/svg">
<path d="M13.7771 13.174C12.2744 14.6153 10.4344 15.336 8.25709 15.336C6.04909 15.336 4.19375 14.6 2.69109 13.128C1.21909 11.656 0.483086 9.862 0.483086 7.746C0.483086 5.63 1.21909 3.836 2.69109 2.364C4.22442 0.891998 6.07975 0.155998 8.25709 0.155998C10.4651 0.155998 12.3051 0.891998 13.7771 2.364C15.2491 3.77467 15.9851 5.56867 15.9851 7.746C15.9851 9.89267 15.2491 11.702 13.7771 13.174ZM6.50909 29.734L3.74909 28.124L24.7251 4.802L27.5311 6.366L6.50909 29.734ZM6.14109 9.862C6.69309 10.414 7.38309 10.69 8.21109 10.69C9.03909 10.69 9.72909 10.414 10.2811 9.862C10.8331 9.27933 11.1091 8.574 11.1091 7.746C11.1091 6.918 10.8331 6.228 10.2811 5.676C9.72909 5.124 9.03909 4.848 8.21109 4.848C7.38309 4.848 6.69309 5.124 6.14109 5.676C5.61975 6.228 5.35909 6.918 5.35909 7.746C5.35909 8.574 5.61975 9.27933 6.14109 9.862ZM31.5331 25.962C31.5331 28.078 30.7971 29.872 29.3251 31.344C27.8531 32.816 26.0131 33.552 23.8051 33.552C21.5971 33.552 19.7571 32.816 18.2851 31.344C16.8131 29.872 16.0771 28.078 16.0771 25.962C16.0771 23.846 16.8131 22.052 18.2851 20.58C19.7571 19.108 21.5971 18.372 23.8051 18.372C26.0131 18.372 27.8531 19.108 29.3251 20.58C30.7971 22.052 31.5331 23.846 31.5331 25.962ZM25.8291 28.078C26.3811 27.4953 26.6571 26.79 26.6571 25.962C26.6571 25.134 26.3811 24.444 25.8291 23.892C25.3078 23.3093 24.6331 23.018 23.8051 23.018C22.9771 23.018 22.2871 23.3093 21.7351 23.892C21.2138 24.444 20.9531 25.134 20.9531 25.962C20.9531 26.79 21.2138 27.4953 21.7351 28.078C22.2871 28.63 22.9771 28.906 23.8051 28.906C24.6331 28.906 25.3078 28.63 25.8291 28.078Z" fill="white"/>
</svg>
