<svg width="1920" height="309" viewBox="0 0 1920 309" fill="none" xmlns="http://www.w3.org/2000/svg">
<path opacity="0.2" d="M416.216 11.7598H-6V92H1244.14H1778.5C1787.83 91 1806.5 97.7 1806.5 132.5V230.5C1806.5 244.5 1807 279.5 1835 295.5C1863 311.5 1924.33 306.667 1949 300C1949 300 1942.5 272.147 1942.5 237C1931.83 240.167 1907.9 244.6 1897.5 237C1887.1 229.4 1891.5 206 1891.5 116.5C1891.5 94.5 1910.85 92 1910.85 92H1942.85L1949 11.7598H1197.12V2H1176.6V11.7598H946.987V2H928.478V11.7598H677.85V2H660.341V11.7598H434.725V2H416.216V11.7598Z" stroke="#0A3A8C" stroke-width="4"/>
</svg>
